<svg width="124" height="31" viewBox="0 0 124 31" fill="none" xmlns="http://www.w3.org/2000/svg">
<rect x="39.1579" y="1.4762" width="5.22105" height="29.5238" rx="2.61053" fill="white"/>
<rect x="100.505" y="1.4762" width="6.52632" height="29.5238" rx="3.26316" fill="white"/>
<rect x="118.779" y="1.4762" width="5.22105" height="29.5238" rx="2.61053" fill="white"/>
<rect x="80.9263" y="1.4762" width="6.52632" height="29.5238" rx="3.26316" fill="white"/>
<rect x="71.7895" y="1.4762" width="5.22105" height="29.5238" rx="2.61053" fill="white"/>
<rect x="48.2947" y="1.4762" width="5.22105" height="29.5238" rx="2.61053" fill="white"/>
<rect x="48.2947" y="1.4762" width="20.8842" height="2.95238" rx="1.47619" fill="white"/>
<rect x="48.2947" y="11.8096" width="20.8842" height="4.42857" rx="2.21428" fill="white"/>
<rect width="19.1531" height="4.6836" rx="2.3418" transform="matrix(0.544125 0.839004 -0.889399 0.457131 104.565 0.246704)" fill="white"/>
<rect width="19.1531" height="4.68359" rx="2.3418" transform="matrix(0.544125 -0.839004 0.889399 0.457131 109.127 16.0695)" fill="white"/>
<rect x="80.9263" y="25.0952" width="19.5789" height="5.90476" rx="2.95238" fill="white"/>
<rect width="35.2421" height="31" rx="4" fill="#202020"/>
<rect x="10.4421" y="2.95239" width="2.61053" height="1.47619" fill="white"/>
<rect x="14.3579" y="2.95239" width="2.61053" height="1.47619" fill="white"/>
<rect x="18.2737" y="2.95239" width="2.61053" height="1.47619" fill="white"/>
<rect x="22.1895" y="2.95239" width="2.61053" height="1.47619" fill="white"/>
<rect x="26.1053" y="2.95239" width="2.61053" height="1.47619" fill="white"/>
<rect x="30.0211" y="2.95239" width="2.61053" height="1.47619" fill="white"/>
<rect x="2.61052" y="2.95239" width="2.61053" height="1.47619" fill="white"/>
<rect x="6.52632" y="2.95239" width="2.61053" height="1.47619" fill="white"/>
<rect x="10.4421" y="26.5714" width="2.61053" height="1.47619" fill="white"/>
<rect x="14.3579" y="26.5714" width="2.61053" height="1.47619" fill="white"/>
<rect x="18.2737" y="26.5714" width="2.61053" height="1.47619" fill="white"/>
<rect x="22.1895" y="26.5714" width="2.61053" height="1.47619" fill="white"/>
<rect x="26.1053" y="26.5714" width="2.61053" height="1.47619" fill="white"/>
<rect x="30.0211" y="26.5714" width="2.61053" height="1.47619" fill="white"/>
<rect x="2.61052" y="26.5714" width="2.61053" height="1.47619" fill="white"/>
<rect x="6.52632" y="26.5714" width="2.61053" height="1.47619" fill="white"/>
<rect x="2.61052" y="7.38098" width="30.0211" height="16.2381" fill="white"/>
<ellipse cx="17.6211" cy="15.5" rx="5.87368" ry="6.64286" fill="black"/>
<path d="M15.3531 11.7894L21.0461 15.7046L15.3531 19.6198L15.3531 11.7894Z" fill="#C4C4C4"/>
</svg>
